HIERARCHY
ROOT Hips
{
	OFFSET 0.000000 0.000000 0.000000
	CHANNELS 6 Xposition Yposition Zposition Zrotation Yrotation Xrotation 
	JOINT LowerBack
	{
		OFFSET 0.000000 0.000000 0.000000
		CHANNELS 3 Zrotation Yrotation Xrotation
		JOINT Spine
		{
			OFFSET 0.028270 2.035590 -0.193380
			CHANNELS 3 Zrotation Yrotation Xrotation
			JOINT Spine1
			{
				OFFSET 0.056720 2.048850 -0.042750
				CHANNELS 3 Zrotation Yrotation Xrotation
				JOINT Neck
				{
					OFFSET 0.000000 0.000000 0.000000
					CHANNELS 3 Zrotation Yrotation Xrotation
					JOINT Neck1
					{
						OFFSET -0.054170 1.746240 0.172020
						CHANNELS 3 Zrotation Yrotation Xrotation
						JOINT Head
						{
							OFFSET 0.104070 1.761360 -0.123970
							CHANNELS 3 Zrotation Yrotation Xrotation
							End Site
							{
								OFFSET 0.000000 0.000000 0.000000
							}
						}
					}
				}
				JOINT LeftShoulder
				{
					OFFSET 0.000000 0.000000 0.000000
					CHANNELS 3 Zrotation Yrotation Xrotation
					JOINT LeftArm
					{
						OFFSET 3.362410 1.200890 -0.311210
						CHANNELS 3 Zrotation Yrotation Xrotation
						JOINT LeftForeArm
						{
							OFFSET 4.983000 -0.000000 -0.000000
							CHANNELS 3 Zrotation Yrotation Xrotation
							JOINT LeftHand
							{
								OFFSET 3.483560 -0.000000 -0.000000
								CHANNELS 3 Zrotation Yrotation Xrotation
								JOINT LeftFingerBase
								{
									OFFSET 0.000000 0.000000 0.000000
									CHANNELS 3 Zrotation Yrotation Xrotation
									JOINT LeftHandIndex1
									{
										OFFSET 0.715260 -0.000000 -0.000000
										CHANNELS 3 Zrotation Yrotation Xrotation
										End Site
										{
											OFFSET 0.000000 0.000000 0.000000
										}
									}
								}
								JOINT LThumb
								{
									OFFSET 0.000000 0.000000 0.000000
									CHANNELS 3 Zrotation Yrotation Xrotation
									End Site
									{
										OFFSET 0.000000 0.000000 0.000000
									}
								}
							}
						}
					}
				}
				JOINT RightShoulder
				{
					OFFSET 0.000000 0.000000 0.000000
					CHANNELS 3 Zrotation Yrotation Xrotation
					JOINT RightArm
					{
						OFFSET -3.136600 1.374050 -0.404650
						CHANNELS 3 Zrotation Yrotation Xrotation
						JOINT RightForeArm
						{
							OFFSET -5.241900 -0.000000 -0.000000
							CHANNELS 3 Zrotation Yrotation Xrotation
							JOINT RightHand
							{
								OFFSET -3.444170 -0.000000 -0.000000
								CHANNELS 3 Zrotation Yrotation Xrotation
								JOINT RightFingerBase
								{
									OFFSET 0.000000 0.000000 0.000000
									CHANNELS 3 Zrotation Yrotation Xrotation
									JOINT RightHandIndex1
									{
										OFFSET -0.622530 -0.000000 -0.000000
										CHANNELS 3 Zrotation Yrotation Xrotation
										End Site
										{
											OFFSET 0.000000 0.000000 0.000000
										}
									}
								}
								JOINT RThumb
								{
									OFFSET 0.000000 0.000000 0.000000
									CHANNELS 3 Zrotation Yrotation Xrotation
									End Site
									{
										OFFSET 0.000000 0.000000 0.000000
									}
								}
							}
						}
					}
				}
			}
		}
	}
}
}
MOTION
Frames: 7
Frame Time: 0.008333
-19.007277 15.069443 -0.717003 -129.645890 85.911119 -94.356756 -4.638400 0.993115 5.713444 -1.978415 1.286533 -1.903190 -6.074429 1.312536 -0.109076 10.413532 -8.857430 -10.041819 -1.375965 -0.038679 -1.106227 0.000000 0.000000 0.000000 5.775123 20.794843 3.450573 -69.957880 33.438833 15.943315 -0.649244 -77.773569 0.004542 -5.484418 4.101995 -0.197281 0.041431 0.018252 0.000000 0.000000 0.000000 0.000000 0.000000 0.000000 0.000000 5.123061 -0.965371 -1.042833 70.533552 9.647605 7.674426 179.731173 79.436373 179.939757 -7.695900 2.366509 -0.196020 0.141577 -0.511582 -0.000000 0.000000 0.000000 0.000000 0.000000 0.000000 0.000000 
-18.816642 15.051732 -0.735897 -129.036593 85.743841 -93.849039 -4.752552 0.967749 5.741829 -2.017789 1.261455 -1.898602 -6.134667 1.290221 -0.133657 10.481834 -8.859244 -10.066104 -1.377800 -0.038162 -1.114516 0.000000 0.000000 0.000000 5.657431 20.827820 3.438811 -69.759811 33.132717 15.926935 -0.642030 -77.986557 0.004748 -5.442753 3.921481 -0.186867 0.040596 0.022249 0.000000 0.000000 0.000000 0.000000 0.000000 0.000000 0.000000 5.148732 -0.946276 -1.050898 71.219459 9.346341 7.668887 179.744970 79.667511 179.939935 -7.655698 2.404533 -0.197618 0.138062 -0.512551 -0.000000 0.000000 0.000000 0.000000 0.000000 0.000000 0.000000 
-18.627758 15.035142 -0.754965 -128.767999 85.589854 -93.660752 -4.868930 0.929544 5.760260 -2.055415 1.223159 -1.892538 -6.186504 1.254680 -0.147844 10.542769 -8.872204 -10.091190 -1.380819 -0.037699 -1.123129 0.000000 0.000000 0.000000 5.514432 20.855622 3.425413 -69.594684 32.740129 15.866012 -0.637276 -78.143602 0.004964 -5.381782 3.739033 -0.175850 0.039267 0.026713 0.000000 0.000000 0.000000 0.000000 0.000000 0.000000 0.000000 5.189161 -0.952261 -1.055489 71.902751 9.066585 7.723362 179.759337 79.992255 179.940404 -7.592451 2.433261 -0.197820 0.134208 -0.512509 -0.000000 0.000000 0.000000 0.000000 0.000000 0.000000 0.000000 
-18.441118 15.019880 -0.774025 -128.827798 85.450048 -93.779006 -4.988665 0.879307 5.771961 -2.091678 1.172608 -1.884917 -6.230143 1.206803 -0.153772 10.599311 -8.891668 -10.118324 -1.386021 -0.037342 -1.132635 0.000000 0.000000 0.000000 5.350883 20.872372 3.412440 -69.467903 32.255212 15.756512 -0.635267 -78.236968 0.005185 -5.299337 3.563973 -0.164726 0.037414 0.031565 0.000000 0.000000 0.000000 0.000000 0.000000 0.000000 0.000000 5.249945 -0.976617 -1.054898 72.572554 8.800196 7.828312 179.773697 80.398447 179.941201 -7.500259 2.457051 -0.196826 0.129910 -0.511602 -0.000000 0.000000 0.000000 0.000000 0.000000 0.000000 0.000000 
-18.257106 15.006269 -0.792830 -129.192792 85.328132 -94.181439 -5.115710 0.817852 5.782192 -2.127788 1.110846 -1.876662 -6.266762 1.147458 -0.158972 10.653017 -8.906454 -10.143816 -1.395150 -0.037292 -1.142172 0.000000 0.000000 0.000000 5.158964 20.857108 3.400913 -69.377260 31.694727 15.581411 -0.635382 -78.279057 0.005402 -5.191606 3.405513 -0.153798 0.035044 0.036720 0.000000 0.000000 0.000000 0.000000 0.000000 0.000000 0.000000 5.335833 -1.005506 -1.046096 73.221062 8.532492 7.970431 179.787566 80.872242 179.942349 -7.373147 2.482285 -0.194934 0.125041 -0.510047 -0.000000 0.000000 0.000000 0.000000 0.000000 0.000000 0.000000 
-18.076198 14.994551 -0.811223 -129.788296 85.222902 -94.795128 -5.248304 0.747867 5.796030 -2.163685 1.040694 -1.867932 -6.297253 1.079336 -0.167587 10.704808 -8.908852 -10.166050 -1.409596 -0.037687 -1.151471 0.000000 0.000000 0.000000 4.938237 20.800461 3.391826 -69.321314 31.060277 15.339237 -0.637576 -78.269263 0.005603 -5.055009 3.272560 -0.143466 0.032141 0.042080 0.000000 0.000000 0.000000 0.000000 0.000000 0.000000 0.000000 5.451037 -1.028721 -1.027323 73.838551 8.253951 8.138008 179.800739 81.402608 179.943874 -7.207687 2.515472 -0.192546 0.119526 -0.508036 -0.000000 0.000000 0.000000 0.000000 0.000000 0.000000 0.000000 
-17.899076 14.984989 -0.829346 -130.479860 85.124671 -95.489370 -5.375593 0.674257 5.819370 -2.197229 0.967009 -1.857079 -6.321816 1.007320 -0.177341 10.754414 -8.899740 -10.187906 -1.429801 -0.038505 -1.161574 0.000000 0.000000 0.000000 4.699804 20.714236 3.386021 -69.301453 30.324250 15.054547 -0.642784 -78.185452 0.005769 -4.886500 3.173031 -0.134129 0.028651 0.047565 0.000000 0.000000 0.000000 0.000000 0.000000 0.000000 0.000000 5.597849 -1.045430 -0.999143 74.413132 7.967215 8.324947 179.813229 81.983284 179.945748 -7.003569 2.562090 -0.189661 0.113375 -0.505692 0.000000 0.000000 0.000000 0.000000 0.000000 0.000000 0.000000 
